<svg width="483" height="483" viewBox="0 0 483 483" fill="none" xmlns="http://www.w3.org/2000/svg">
<path d="M241.18 482.36C374.38 482.36 482.36 374.38 482.36 241.18C482.36 107.98 374.38 0 241.18 0C107.98 0 0 107.98 0 241.18C0 374.38 107.98 482.36 241.18 482.36Z" fill="url(#paint0_radial_862_12586)"/>
<g style="mix-blend-mode:soft-light">
<path d="M241.18 482.36C374.38 482.36 482.36 374.38 482.36 241.18C482.36 107.98 374.38 0 241.18 0C107.98 0 0 107.98 0 241.18C0 374.38 107.98 482.36 241.18 482.36Z" fill="url(#paint1_radial_862_12586)"/>
</g>
<g style="mix-blend-mode:soft-light">
<path d="M241.18 482.36C374.38 482.36 482.36 374.38 482.36 241.18C482.36 107.98 374.38 0 241.18 0C107.98 0 0 107.98 0 241.18C0 374.38 107.98 482.36 241.18 482.36Z" fill="url(#paint2_radial_862_12586)"/>
</g>
<g style="mix-blend-mode:overlay">
<path d="M241.18 482.36C374.38 482.36 482.36 374.38 482.36 241.18C482.36 107.98 374.38 0 241.18 0C107.98 0 0 107.98 0 241.18C0 374.38 107.98 482.36 241.18 482.36Z" fill="url(#paint3_radial_862_12586)" fill-opacity="0.7"/>
</g>
<mask id="mask0_862_12586" style="mask-type:alpha" maskUnits="userSpaceOnUse" x="0" y="0" width="483" height="483">
<path d="M241.18 482.36C374.38 482.36 482.36 374.38 482.36 241.18C482.36 107.98 374.38 0 241.18 0C107.98 0 0 107.98 0 241.18C0 374.38 107.98 482.36 241.18 482.36Z" fill="white"/>
</mask>
<g mask="url(#mask0_862_12586)">
<g filter="url(#filter0_f_862_12586)">
<path d="M-1.3759 234.299C-1.11402 230.872 0.0137008 230.529 0.342619 234.008C0.708055 237.874 -0.00231624 245.646 0.16871 250.335C0.621554 262.748 2.52441 273.541 4.48605 282.32C10.8075 310.612 19.5617 328.843 27.7268 344.288C54.5663 395.06 83.9667 420.77 112.648 440.147C154.689 468.549 197.072 477.584 239.49 479.5C240.56 479.548 240.738 486.518 239.686 487.425C237.788 489.061 235.436 487.437 233.494 487.369C227.915 487.174 222.335 486.791 216.756 486.211C200.213 484.492 183.67 480.991 167.162 475.358C122.275 460.044 73.8765 433.821 31.6092 359.962C28.9502 355.316 26.3124 350.424 23.7118 345.167C21.6321 340.963 19.5726 336.556 17.5493 331.843C10.8946 316.342 -4.61323 276.658 -1.3759 234.299ZM239.52 487.5C238.499 487.531 238.241 481.034 239.214 479.685C240.684 477.647 242.888 479.326 244.439 479.229C250.877 478.826 257.314 478.229 263.75 477.421C281.395 475.205 299.028 471.422 316.621 465.596C360.257 451.145 407.17 429.115 448.305 361.431C450.923 357.123 453.518 352.553 456.079 347.641C463.86 332.712 483.361 293.084 481.107 243.821C480.917 239.668 482.181 237.181 482.747 240.743C483.467 245.279 483.175 254.736 482.977 259.768C482.341 275.883 479.866 289.512 477.257 300.518C468.987 335.399 457.376 355.623 446.744 372.51C412.184 427.397 374.648 449.524 338.155 465.424C305.424 479.686 272.444 486.484 239.52 487.5Z" fill="#401C02"/>
</g>
<g filter="url(#filter1_f_862_12586)">
<path d="M-1.3759 234.299C-1.11402 230.872 0.0137008 230.529 0.342619 234.008C0.708055 237.874 -0.00231624 245.646 0.16871 250.335C0.621554 262.748 2.52441 273.541 4.48605 282.32C10.8075 310.612 19.5617 328.843 27.7268 344.288C54.5663 395.06 83.9667 420.77 112.648 440.147C154.689 468.549 197.072 477.584 239.49 479.5C240.56 479.548 240.738 486.518 239.686 487.425C237.788 489.061 235.436 487.437 233.494 487.369C227.915 487.174 222.335 486.791 216.756 486.211C200.213 484.492 183.67 480.991 167.162 475.358C122.275 460.044 73.8765 433.821 31.6092 359.962C28.9502 355.316 26.3124 350.424 23.7118 345.167C21.6321 340.963 19.5726 336.556 17.5493 331.843C10.8946 316.342 -4.61323 276.658 -1.3759 234.299ZM239.52 487.5C238.499 487.531 238.241 481.034 239.214 479.685C240.684 477.647 242.888 479.326 244.439 479.229C250.877 478.826 257.314 478.229 263.75 477.421C281.395 475.205 299.028 471.422 316.621 465.596C360.257 451.145 407.17 429.115 448.305 361.431C450.923 357.123 453.518 352.553 456.079 347.641C463.86 332.712 483.361 293.084 481.107 243.821C480.917 239.668 482.181 237.181 482.747 240.743C483.467 245.279 483.175 254.736 482.977 259.768C482.341 275.883 479.866 289.512 477.257 300.518C468.987 335.399 457.376 355.623 446.744 372.51C412.184 427.397 374.648 449.524 338.155 465.424C305.424 479.686 272.444 486.484 239.52 487.5Z" fill="#401C02"/>
</g>
</g>
<path d="M337.842 295.23H143.322C136.949 295.23 131.782 300.394 131.782 306.765C131.782 313.136 136.949 318.3 143.322 318.3H337.842C344.216 318.3 349.382 313.136 349.382 306.765C349.382 300.394 344.216 295.23 337.842 295.23Z" fill="url(#paint4_radial_862_12586)"/>
<path d="M337.842 295.23H143.322C136.949 295.23 131.782 300.394 131.782 306.765C131.782 313.136 136.949 318.3 143.322 318.3H337.842C344.216 318.3 349.382 313.136 349.382 306.765C349.382 300.394 344.216 295.23 337.842 295.23Z" stroke="url(#paint5_linear_862_12586)" stroke-width="2.5" stroke-miterlimit="10"/>
<path d="M320.023 240.54C336.022 240.54 348.993 220.934 348.993 196.75C348.993 172.565 336.022 152.96 320.023 152.96C304.023 152.96 291.053 172.565 291.053 196.75C291.053 220.934 304.023 240.54 320.023 240.54Z" fill="url(#paint6_radial_862_12586)"/>
<path d="M320.023 240.54C336.022 240.54 348.993 220.934 348.993 196.75C348.993 172.565 336.022 152.96 320.023 152.96C304.023 152.96 291.053 172.565 291.053 196.75C291.053 220.934 304.023 240.54 320.023 240.54Z" stroke="url(#paint7_linear_862_12586)" stroke-width="2" stroke-miterlimit="10"/>
<path d="M160.752 240.55C176.752 240.55 189.722 227.459 189.722 211.31C189.722 195.161 176.752 182.07 160.752 182.07C144.753 182.07 131.782 195.161 131.782 211.31C131.782 227.459 144.753 240.55 160.752 240.55Z" fill="url(#paint8_radial_862_12586)"/>
<path d="M160.752 240.55C176.752 240.55 189.722 227.459 189.722 211.31C189.722 195.161 176.752 182.07 160.752 182.07C144.753 182.07 131.782 195.161 131.782 211.31C131.782 227.459 144.753 240.55 160.752 240.55Z" stroke="url(#paint9_linear_862_12586)" stroke-width="2" stroke-miterlimit="10"/>
<path d="M114.642 167.04C118.96 162.832 124.054 159.503 129.642 157.24C139.152 153.3 147.842 154.83 157.142 158.4C164.422 161.2 171.922 165.04 179.802 167.22C191.422 170.43 203.572 170.57 215.492 169.39C219.792 168.96 223.492 166.01 223.492 161.39C223.492 157.39 219.822 152.96 215.492 153.39C203.822 154.54 192.262 154.52 181.022 150.88C172.682 148.18 165.112 144 156.512 141.25C137.512 135.17 117.322 141.92 103.372 155.73C96.0425 162.98 107.372 174.3 114.682 167.04H114.642Z" fill="#42210B"/>
<path d="M283.192 118.51C297.122 108.68 311.762 99.1701 327.252 92.0101C330.899 90.1682 334.792 88.8614 338.812 88.1301C336.622 88.4401 339.812 88.2001 340.182 88.2301C339.792 88.2301 342.362 88.7101 342.182 88.6601C344.851 89.4721 347.389 90.6607 349.722 92.1901C356.785 96.7391 363.103 102.352 368.452 108.83C375.122 116.69 386.392 105.32 379.762 97.5201C369.902 85.9101 353.762 70.8001 337.302 72.3201C328.882 73.1001 320.832 77.1801 313.422 81.0101C305.002 85.3601 296.892 90.3001 288.932 95.4201C284.262 98.4201 279.622 101.49 275.092 104.69C266.742 110.58 274.732 124.46 283.162 118.51H283.192Z" fill="#42210B"/>
<defs>
<filter id="filter0_f_862_12586" x="-26.8149" y="206.558" width="535.022" height="306.595" filterUnits="userSpaceOnUse" color-interpolation-filters="sRGB">
<feFlood flood-opacity="0" result="BackgroundImageFix"/>
<feBlend mode="normal" in="SourceGraphic" in2="BackgroundImageFix" result="shape"/>
<feGaussianBlur stdDeviation="12.5" result="effect1_foregroundBlur_862_12586"/>
</filter>
<filter id="filter1_f_862_12586" x="-41.8149" y="191.558" width="565.022" height="336.595" filterUnits="userSpaceOnUse" color-interpolation-filters="sRGB">
<feFlood flood-opacity="0" result="BackgroundImageFix"/>
<feBlend mode="normal" in="SourceGraphic" in2="BackgroundImageFix" result="shape"/>
<feGaussianBlur stdDeviation="20" result="effect1_foregroundBlur_862_12586"/>
</filter>
<radialGradient id="paint0_radial_862_12586" cx="0" cy="0" r="1" gradientUnits="userSpaceOnUse" gradientTransform="translate(241 -4.53898e-06) rotate(90) scale(482)">
<stop stop-color="#FFDE43"/>
<stop offset="1" stop-color="#FFBC00"/>
</radialGradient>
<radialGradient id="paint1_radial_862_12586" cx="0" cy="0" r="1" gradientUnits="userSpaceOnUse" gradientTransform="translate(241 64.5) rotate(90) scale(417.5)">
<stop stop-color="white" stop-opacity="0.5"/>
<stop offset="0.782278"/>
</radialGradient>
<radialGradient id="paint2_radial_862_12586" cx="0" cy="0" r="1" gradientUnits="userSpaceOnUse" gradientTransform="translate(241 64.5) rotate(90) scale(417.5)">
<stop stop-color="white" stop-opacity="0.5"/>
<stop offset="0.782278"/>
</radialGradient>
<radialGradient id="paint3_radial_862_12586" cx="0" cy="0" r="1" gradientUnits="userSpaceOnUse" gradientTransform="translate(241 -52.5) rotate(90) scale(534.5 722.835)">
<stop offset="0.0922635" stop-color="white"/>
<stop offset="0.670207" stop-color="white" stop-opacity="0"/>
</radialGradient>
<radialGradient id="paint4_radial_862_12586" cx="0" cy="0" r="1" gradientUnits="userSpaceOnUse" gradientTransform="translate(240.582 306.718) scale(82.1248 23.302)">
<stop stop-color="#743C1C"/>
<stop offset="1" stop-color="#401C02"/>
</radialGradient>
<linearGradient id="paint5_linear_862_12586" x1="240.582" y1="318.949" x2="240.582" y2="294.488" gradientUnits="userSpaceOnUse">
<stop offset="0.265625" stop-color="#FFDE43"/>
<stop offset="1" stop-color="#F79D14"/>
</linearGradient>
<radialGradient id="paint6_radial_862_12586" cx="0" cy="0" r="1" gradientUnits="userSpaceOnUse" gradientTransform="translate(319.983 196.721) scale(36.9297 43.866)">
<stop stop-color="#743C1C"/>
<stop offset="1" stop-color="#401C02"/>
</radialGradient>
<linearGradient id="paint7_linear_862_12586" x1="320.023" y1="243.004" x2="320.023" y2="150.142" gradientUnits="userSpaceOnUse">
<stop stop-color="#FFDE43"/>
<stop offset="0.22" stop-color="#FED93F"/>
<stop offset="0.51" stop-color="#FCC934"/>
<stop offset="0.82" stop-color="#F9AF21"/>
<stop offset="1" stop-color="#F79D14"/>
</linearGradient>
<radialGradient id="paint8_radial_862_12586" cx="0" cy="0" r="1" gradientUnits="userSpaceOnUse" gradientTransform="translate(160.712 211.29) scale(36.9297 29.2907)">
<stop stop-color="#743C1C"/>
<stop offset="1" stop-color="#401C02"/>
</radialGradient>
<linearGradient id="paint9_linear_862_12586" x1="160.752" y1="242.195" x2="160.752" y2="180.188" gradientUnits="userSpaceOnUse">
<stop stop-color="#FFDE43"/>
<stop offset="0.22" stop-color="#FED93F"/>
<stop offset="0.51" stop-color="#FCC934"/>
<stop offset="0.82" stop-color="#F9AF21"/>
<stop offset="1" stop-color="#F79D14"/>
</linearGradient>
</defs>
</svg>
